<svg id="omakase_logo_balck" xmlns="http://www.w3.org/2000/svg" width="117.801" height="43.437" viewBox="0 0 117.801 43.437">
  <path id="Path_198" data-name="Path 198" d="M15.711,58.914a7.15,7.15,0,0,0-2.021,5.224v3.089a7,7,0,0,0,7.324,7.288,7.03,7.03,0,0,0,5.255-2.057,7.172,7.172,0,0,0,2.01-5.232V64.138a7.134,7.134,0,0,0-2.029-5.224A7.045,7.045,0,0,0,20.99,56.85,7.075,7.075,0,0,0,15.711,58.914ZM23.439,61.1a4.972,4.972,0,0,1,.867,3.018v3.112a5.03,5.03,0,0,1-.86,3.042,2.834,2.834,0,0,1-2.429,1.177,2.906,2.906,0,0,1-2.484-1.177,5.013,5.013,0,0,1-.867-3.042V64.115a5.022,5.022,0,0,1,.856-3.026,2.872,2.872,0,0,1,2.473-1.174A2.871,2.871,0,0,1,23.439,61.1Z" transform="translate(-13.647 -39.254)"/>
  <path id="Path_199" data-name="Path 199" d="M73.516,74.661h4V57.49H72.256L68.363,69.508h-.071L64.446,57.49H59.21V74.661h4V70.4l-.377-7.736.071-.012,4.09,12.006h2.688l4.141-12.112.071.012L73.516,70.4Z" transform="translate(-41.301 -39.642)"/>
  <path id="Path_200" data-name="Path 200" d="M112.43,74.661h4.011l.966-3.336h5.412l.977,3.336h4.011L122.254,57.49h-4.282Zm7.642-12.548h.071l1.794,6.146H118.29Z" transform="translate(-73.633 -39.642)"/>
  <path id="Path_201" data-name="Path 201" d="M157.96,57.49V74.661h4V67.773H163.8l3.846,6.888h4.859l-5.781-9.4,5.318-7.771h-4.953l-3.772,6.719h-1.358V57.49Z" transform="translate(-101.293 -39.642)"/>
  <path id="Path_202" data-name="Path 202" d="M199.69,74.661H203.7l.965-3.336h5.412l.977,3.336h4.011L209.514,57.49h-4.282Zm7.646-12.548h.071L209.2,68.26h-3.646Z" transform="translate(-126.645 -39.642)"/>
  <path id="Path_203" data-name="Path 203" d="M250.073,71.513a3.872,3.872,0,0,1-2.429-.636,2.554,2.554,0,0,1-.8-2.123h-3.882l-.024.071a4.678,4.678,0,0,0,2.076,4.227,8.718,8.718,0,0,0,5.059,1.468,7.808,7.808,0,0,0,4.678-1.279,4.126,4.126,0,0,0,1.762-3.544,4.388,4.388,0,0,0-1.48-3.5,12.067,12.067,0,0,0-4.4-2.147,13.927,13.927,0,0,1-2.59-1.138,1.39,1.39,0,0,1-.691-1.209,1.611,1.611,0,0,1,.683-1.311,3.007,3.007,0,0,1,1.888-.53,2.732,2.732,0,0,1,1.923.644,2.168,2.168,0,0,1,.695,1.668h3.87l.024-.071a4.478,4.478,0,0,0-1.762-3.78,7.235,7.235,0,0,0-4.678-1.468,7.951,7.951,0,0,0-4.745,1.334,4.094,4.094,0,0,0-1.868,3.489,3.969,3.969,0,0,0,1.57,3.391,16.617,16.617,0,0,0,4.824,2.2,7.7,7.7,0,0,1,2.159,1.048,1.716,1.716,0,0,1,.6,1.405,1.605,1.605,0,0,1-.608,1.3A2.879,2.879,0,0,1,250.073,71.513Z" transform="translate(-152.918 -39.254)"/>
  <path id="Path_204" data-name="Path 204" d="M285.48,74.661h11.048V71.6h-7.053V67.314h7.076V64.245h-7.076V60.555h7.076V57.49H285.48Z" transform="translate(-178.764 -39.642)"/>
  <rect id="Rectangle_1143" data-name="Rectangle 1143" width="117.745" height="4.392" transform="translate(0.043 39.046)"/>
  <path id="Path_205" data-name="Path 205" d="M14.135,22.713l116.858-5.954a.44.44,0,0,0,.416-.467l-.247-3.866a.437.437,0,0,0-.471-.408l-116.658,9.1a.441.441,0,0,0-.4.467l.047.718A.432.432,0,0,0,14.135,22.713Z" transform="translate(-13.609 -12.016)"/>
  <path id="Path_206" data-name="Path 206" d="M14.027,38.8l116.854-.067a.44.44,0,0,0,.44-.444l-.055-3.866a.44.44,0,0,0-.451-.432L14.008,37.2a.44.44,0,0,0-.428.444l.012.718A.437.437,0,0,0,14.027,38.8Z" transform="translate(-13.58 -25.365)"/>
</svg>
