<svg xmlns="http://www.w3.org/2000/svg" width="195.387" height="73" viewBox="0 0 195.387 73">
  <defs>
    <style>
      .cls-1 {
        stroke: rgba(0,0,0,0);
        stroke-miterlimit: 10;
      }
    </style>
  </defs>
  <g id="Component_9_1" data-name="Component 9 – 1" transform="translate(0.5 0.5)">
    <path id="Union_6" data-name="Union 6" class="cls-1" d="M1242.072,72a3,3,0,0,1-3-3V67.718a3,3,0,0,1,3-3h188.3a3,3,0,0,1,3,3V69a3,3,0,0,1-3,3Zm148.9-15.979a7.778,7.778,0,0,1-3.425-7.008l.04-.117h6.4a4.247,4.247,0,0,0,1.322,3.519,6.36,6.36,0,0,0,4.009,1.056,4.75,4.75,0,0,0,3.047-.821,2.648,2.648,0,0,0,1-2.151,2.847,2.847,0,0,0-.993-2.326,12.675,12.675,0,0,0-3.561-1.741,27.364,27.364,0,0,1-7.96-3.645,6.6,6.6,0,0,1-2.589-5.621,6.8,6.8,0,0,1,3.086-5.786,13.124,13.124,0,0,1,7.833-2.209A11.879,11.879,0,0,1,1406.9,31.6a7.441,7.441,0,0,1,2.911,6.266l-.04.118h-6.384a3.605,3.605,0,0,0-1.148-2.767,4.484,4.484,0,0,0-3.172-1.065,4.947,4.947,0,0,0-3.115.879,2.659,2.659,0,0,0-1.129,2.17,2.3,2.3,0,0,0,1.139,2,22.8,22.8,0,0,0,4.271,1.887,19.843,19.843,0,0,1,7.269,3.558,7.271,7.271,0,0,1,2.443,5.807,6.865,6.865,0,0,1-2.911,5.874,12.809,12.809,0,0,1-7.717,2.121A14.315,14.315,0,0,1,1390.97,56.021Zm-148.55-.977a11.866,11.866,0,0,1-3.347-8.67V41.251a11.888,11.888,0,0,1,3.338-8.66,12.758,12.758,0,0,1,17.39,0,11.873,11.873,0,0,1,3.347,8.66v5.123a11.921,11.921,0,0,1-3.318,8.67,11.55,11.55,0,0,1-8.671,3.412A11.7,11.7,0,0,1,1242.419,55.043Zm4.622-18.846a8.336,8.336,0,0,0-1.41,5.015v5.161a8.332,8.332,0,0,0,1.43,5.044,4.77,4.77,0,0,0,4.1,1.955,4.667,4.667,0,0,0,4.01-1.955,8.372,8.372,0,0,0,1.42-5.044V41.212a8.258,8.258,0,0,0-1.43-5,5.2,5.2,0,0,0-8.116-.01ZM1415.1,58.045V29.579h18.273v5.083h-11.675v6.119h11.675v5.082h-11.675v7.1h11.636v5.083Zm-36.8,0-1.615-5.533h-8.933l-1.6,5.533h-6.618l9.148-28.464h7.065l9.167,28.464Zm-9.089-10.616h6.014l-2.958-10.186h-.117Zm-20.72,10.616-6.345-11.417h-3.036V58.045h-6.6V29.579h6.6V40.723h2.237l6.229-11.144h8.174l-8.778,12.884,9.536,15.582Zm-26.709,0-1.615-5.533h-8.933l-1.6,5.533h-6.617l9.147-28.464h7.066l9.167,28.464Zm-9.089-10.616h6.014l-2.958-10.186h-.116Zm-20.531,10.616V50.987l.623-13-.116-.019-6.832,20.078H1281.4l-6.755-19.9-.116.02.623,12.825v7.058h-6.6V29.579h8.642L1283.54,49.5h.116l6.422-19.921h8.681V58.045Zm-53.143-36.5L1239,20.352a.725.725,0,0,1,.7-.737l192.756-5.325a.725.725,0,0,1,.743.717l.09,6.41a.726.726,0,0,1-.724.737l-192.828.108A.724.724,0,0,1,1239.017,21.545Zm.09-4.493-.077-1.192a.727.727,0,0,1,.668-.772L1432.193,0a.726.726,0,0,1,.78.679l.411,6.405a.727.727,0,0,1-.687.774l-192.83,9.871h-.038A.725.725,0,0,1,1239.107,17.052Z" transform="translate(-1239 0)"/>
  </g>
</svg>
